<svg xmlns="http://www.w3.org/2000/svg" xmlns:xlink="http://www.w3.org/1999/xlink" width="131.213" height="122.547" viewBox="0 0 131.213 122.547"><defs><linearGradient id="a" y1="0.5" x2="1" y2="0.5" gradientUnits="objectBoundingBox"><stop offset="0" stop-color="#6a11cb"/><stop offset="0.5" stop-color="#552fda"/><stop offset="1" stop-color="#2575fc"/></linearGradient><filter id="c" x="1.48" y="0.58" width="129.298" height="121.544" filterUnits="userSpaceOnUse"><feOffset dy="19" input="SourceAlpha"/><feGaussianBlur stdDeviation="19" result="d"/><feFlood flood-opacity="0.4"/><feComposite operator="in" in2="d"/><feComposite in="SourceGraphic"/></filter><filter id="e" x="0" y="2.526" width="122.77" height="117.589" filterUnits="userSpaceOnUse"><feOffset dy="19" input="SourceAlpha"/><feGaussianBlur stdDeviation="19" result="f"/><feFlood flood-opacity="0.4"/><feComposite operator="in" in2="f"/><feComposite in="SourceGraphic"/></filter><filter id="g" x="0.966" y="0" width="130.247" height="122.547" filterUnits="userSpaceOnUse"><feOffset dy="19" input="SourceAlpha"/><feGaussianBlur stdDeviation="19" result="h"/><feFlood flood-opacity="0.4"/><feComposite operator="in" in2="h"/><feComposite in="SourceGraphic"/></filter><filter id="i" x="7.987" y="3.578" width="121.79" height="115.483" filterUnits="userSpaceOnUse"><feOffset dy="19" input="SourceAlpha"/><feGaussianBlur stdDeviation="19" result="j"/><feFlood flood-opacity="0.4"/><feComposite operator="in" in2="j"/><feComposite in="SourceGraphic"/></filter></defs><g transform="translate(52.216 28.355)"><path d="M25.344,65H0L1.079,82.6h25.33L27.771,65Z" transform="translate(0 -58.602)" fill="url(#a)"/><path d="M43.664,3.207H30.433a.235.235,0,0,1-.236-.236V0H20.582V5.942H43.664Z" transform="translate(-18.556)" fill="url(#a)"/><g transform="translate(6.298 10.236)"><g transform="matrix(1, 0, 0, 1, -58.51, -38.59)" filter="url(#c)"><path d="M80.967,113.679l.319.319,1.747-1.8,0,0-.819-.857H75.54a.241.241,0,0,1-.226-.157,3.377,3.377,0,0,0-3.13-2.224,3.24,3.24,0,1,0,2.954,4.57,3.152,3.152,0,0,0,.121-.308.249.249,0,0,1,.23-.165h2.681a.242.242,0,0,1,.171.071l.868.869.869-.869h0a.241.241,0,0,1,.341,0ZM71.32,113.5a1.3,1.3,0,0,1-1.294-1.294h0a1.295,1.295,0,1,1,1.294,1.3Zm4.332-1.056a.241.241,0,0,1,.007-.481h6.317v0h0a.241.241,0,1,1,0,.482Z" transform="translate(-9.94 -69.88)" fill="#3f84a0" stroke="rgba(0,0,0,0)" stroke-miterlimit="10" stroke-width="1"/></g><g transform="matrix(1, 0, 0, 1, -58.51, -38.59)" filter="url(#e)"><path d="M81.242,128.742a1.3,1.3,0,0,0-1.3,1.294h0a1.295,1.295,0,1,0,1.3-1.3Zm0,2.106a.811.811,0,1,1,0-1.622h0a.811.811,0,1,1,0,1.622Z" transform="translate(-19.86 -87.72)" fill="#050606" stroke="rgba(0,0,0,0)" stroke-miterlimit="10" stroke-width="1"/></g><g transform="matrix(1, 0, 0, 1, -58.51, -38.59)" filter="url(#g)"><path d="M76.646,110.041a.25.25,0,0,0,.173.071.242.242,0,0,0,.171-.073l2.083-2.139a.242.242,0,0,0,0-.337l-1.052-1.1a.24.24,0,0,0-.174-.074H71.233a3.924,3.924,0,0,0-1.316-1.664,3.727,3.727,0,1,0,1.27,4.348H73.6l.829.828.037.037.012.012.092.092a.24.24,0,0,0,.333.007l.007-.006h0l.12-.12.747-.748Zm-1.041-1.383h0l-.869.869-.868-.869a.242.242,0,0,0-.171-.071H71.016a.249.249,0,0,0-.23.165,3.155,3.155,0,0,1-.121.308,3.24,3.24,0,1,1-2.954-4.57,3.377,3.377,0,0,1,3.13,2.224.241.241,0,0,0,.226.157h6.676l.819.857,0,0-1.746,1.795-.319-.319-.548-.549A.241.241,0,0,0,75.606,108.658Z" transform="translate(-5.47 -65.41)" fill="#050606" stroke="rgba(0,0,0,0)" stroke-miterlimit="10" stroke-width="1"/></g><g transform="matrix(1, 0, 0, 1, -58.51, -38.59)" filter="url(#i)"><path d="M141.628,139.667a.242.242,0,0,0-.242-.241h0v0h-6.317a.241.241,0,0,0-.007.481h6.324A.243.243,0,0,0,141.628,139.667Z" transform="translate(-69.35 -97.35)" fill="#050606" stroke="rgba(0,0,0,0)" stroke-miterlimit="10" stroke-width="1"/></g></g></g></svg>